<mxfile host="app.diagrams.net" agent="Mozilla/5.0 (Macintosh; Intel Mac OS X 10_15_7) AppleWebKit/537.36 (KHTML, like Gecko) Chrome/131.0.0.0 Safari/537.36" version="25.0.3">
  <diagram name="Page-1" id="6w3Nn8mPZokH5K6b7TAQ">
    <mxGraphModel dx="497" dy="328" grid="1" gridSize="10" guides="1" tooltips="1" connect="1" arrows="1" fold="1" page="1" pageScale="1" pageWidth="827" pageHeight="1169" math="0" shadow="0">
      <root>
        <mxCell id="0" />
        <mxCell id="1" parent="0" />
        <mxCell id="OOeiIcqSMya32nPRaJqt-1" value="Control Plane" style="rounded=1;whiteSpace=wrap;html=1;fillColor=#DAE8FC;strokeColor=#6C8EBF;verticalAlign=top;fontFamily=Verdana;arcSize=9;align=left;spacingLeft=7;" parent="1" vertex="1">
          <mxGeometry x="230" y="208" width="390" height="162" as="geometry" />
        </mxCell>
        <mxCell id="FfEMjMh3a-kymr1CWgue-1" value="" style="aspect=fixed;sketch=0;html=1;dashed=0;whitespace=wrap;verticalLabelPosition=bottom;verticalAlign=top;fillColor=#2875E2;strokeColor=#ffffff;points=[[0.005,0.63,0],[0.1,0.2,0],[0.9,0.2,0],[0.5,0,0],[0.995,0.63,0],[0.72,0.99,0],[0.5,1,0],[0.28,0.99,0]];shape=mxgraph.kubernetes.icon2;kubernetesLabel=1;prIcon=etcd" parent="1" vertex="1">
          <mxGeometry x="400" y="130" width="50" height="48" as="geometry" />
        </mxCell>
        <mxCell id="FfEMjMh3a-kymr1CWgue-2" value="" style="endArrow=none;html=1;rounded=0;exitX=0.5;exitY=1;exitDx=0;exitDy=0;exitPerimeter=0;entryX=0.5;entryY=0;entryDx=0;entryDy=0;entryPerimeter=0;strokeWidth=1;startArrow=blockThin;startFill=1;strokeColor=#2875E2;" parent="1" source="FfEMjMh3a-kymr1CWgue-1" target="_mboFmdrgdcaAABcw1Xs-6" edge="1">
          <mxGeometry width="50" height="50" relative="1" as="geometry">
            <mxPoint x="269.5" y="180" as="sourcePoint" />
            <mxPoint x="320" y="200" as="targetPoint" />
          </mxGeometry>
        </mxCell>
        <mxCell id="_mboFmdrgdcaAABcw1Xs-6" value="" style="aspect=fixed;sketch=0;html=1;dashed=0;whitespace=wrap;verticalLabelPosition=bottom;verticalAlign=top;fillColor=#2875E2;strokeColor=#ffffff;points=[[0.005,0.63,0],[0.1,0.2,0],[0.9,0.2,0],[0.5,0,0],[0.995,0.63,0],[0.72,0.99,0],[0.5,1,0],[0.28,0.99,0]];shape=mxgraph.kubernetes.icon2;kubernetesLabel=1;prIcon=api;rounded=1;" vertex="1" parent="1">
          <mxGeometry x="400" y="220" width="50" height="48" as="geometry" />
        </mxCell>
        <mxCell id="_mboFmdrgdcaAABcw1Xs-7" value="" style="aspect=fixed;sketch=0;html=1;dashed=0;whitespace=wrap;verticalLabelPosition=bottom;verticalAlign=top;fillColor=#2875E2;strokeColor=#ffffff;points=[[0.005,0.63,0],[0.1,0.2,0],[0.9,0.2,0],[0.5,0,0],[0.995,0.63,0],[0.72,0.99,0],[0.5,1,0],[0.28,0.99,0]];shape=mxgraph.kubernetes.icon2;kubernetesLabel=1;prIcon=c_m;rounded=1;" vertex="1" parent="1">
          <mxGeometry x="295" y="298" width="50" height="48" as="geometry" />
        </mxCell>
        <mxCell id="_mboFmdrgdcaAABcw1Xs-8" value="" style="aspect=fixed;sketch=0;html=1;dashed=0;whitespace=wrap;verticalLabelPosition=bottom;verticalAlign=top;fillColor=#2875E2;strokeColor=#ffffff;points=[[0.005,0.63,0],[0.1,0.2,0],[0.9,0.2,0],[0.5,0,0],[0.995,0.63,0],[0.72,0.99,0],[0.5,1,0],[0.28,0.99,0]];shape=mxgraph.kubernetes.icon2;kubernetesLabel=1;prIcon=sched;rounded=1;" vertex="1" parent="1">
          <mxGeometry x="365" y="298" width="50" height="48" as="geometry" />
        </mxCell>
        <mxCell id="_mboFmdrgdcaAABcw1Xs-43" value="" style="group" vertex="1" connectable="0" parent="1">
          <mxGeometry x="435" y="298" width="50" height="48" as="geometry" />
        </mxCell>
        <mxCell id="_mboFmdrgdcaAABcw1Xs-44" value="" style="aspect=fixed;sketch=0;html=1;dashed=0;whitespace=wrap;verticalLabelPosition=bottom;verticalAlign=top;fillColor=#2875E2;strokeColor=#ffffff;points=[[0.005,0.63,0],[0.1,0.2,0],[0.9,0.2,0],[0.5,0,0],[0.995,0.63,0],[0.72,0.99,0],[0.5,1,0],[0.28,0.99,0]];shape=mxgraph.kubernetes.icon2;kubernetesLabel=1;prIcon=sched;rounded=1;" vertex="1" parent="_mboFmdrgdcaAABcw1Xs-43">
          <mxGeometry width="50" height="48" as="geometry" />
        </mxCell>
        <mxCell id="_mboFmdrgdcaAABcw1Xs-45" value="metr" style="whiteSpace=wrap;html=1;fontColor=#FFFFFF;strokeColor=none;fillColor=#2875E2;imageHeight=24;spacing=0;verticalAlign=middle;fontSize=10;" vertex="1" parent="_mboFmdrgdcaAABcw1Xs-43">
          <mxGeometry x="12.5" y="32" width="25" height="10" as="geometry" />
        </mxCell>
        <mxCell id="_mboFmdrgdcaAABcw1Xs-46" value="" style="group" vertex="1" connectable="0" parent="1">
          <mxGeometry x="505" y="298" width="50" height="48" as="geometry" />
        </mxCell>
        <mxCell id="_mboFmdrgdcaAABcw1Xs-47" value="" style="aspect=fixed;sketch=0;html=1;dashed=0;whitespace=wrap;verticalLabelPosition=bottom;verticalAlign=top;fillColor=#2875E2;strokeColor=#ffffff;points=[[0.005,0.63,0],[0.1,0.2,0],[0.9,0.2,0],[0.5,0,0],[0.995,0.63,0],[0.72,0.99,0],[0.5,1,0],[0.28,0.99,0]];shape=mxgraph.kubernetes.icon2;kubernetesLabel=1;prIcon=sched;rounded=1;" vertex="1" parent="_mboFmdrgdcaAABcw1Xs-46">
          <mxGeometry width="50" height="48" as="geometry" />
        </mxCell>
        <mxCell id="_mboFmdrgdcaAABcw1Xs-48" value="dns" style="whiteSpace=wrap;html=1;fontColor=#FFFFFF;strokeColor=none;fillColor=#2875E2;imageHeight=24;spacing=0;verticalAlign=middle;fontSize=10;" vertex="1" parent="_mboFmdrgdcaAABcw1Xs-46">
          <mxGeometry x="12.5" y="32" width="25" height="10" as="geometry" />
        </mxCell>
        <mxCell id="_mboFmdrgdcaAABcw1Xs-108" value="" style="endArrow=none;html=1;rounded=0;exitX=0.06;exitY=0.392;exitDx=0;exitDy=0;exitPerimeter=0;entryX=0.5;entryY=0;entryDx=0;entryDy=0;entryPerimeter=0;strokeWidth=1;startArrow=blockThin;startFill=1;strokeColor=#2875E2;edgeStyle=orthogonalEdgeStyle;" edge="1" parent="1" source="_mboFmdrgdcaAABcw1Xs-6" target="_mboFmdrgdcaAABcw1Xs-7">
          <mxGeometry width="50" height="50" relative="1" as="geometry">
            <mxPoint x="640" y="200" as="sourcePoint" />
            <mxPoint x="640" y="242" as="targetPoint" />
          </mxGeometry>
        </mxCell>
        <mxCell id="_mboFmdrgdcaAABcw1Xs-117" value="mTLS" style="edgeLabel;html=1;align=center;verticalAlign=middle;resizable=0;points=[];labelBackgroundColor=#DAE8FC;" vertex="1" connectable="0" parent="_mboFmdrgdcaAABcw1Xs-108">
          <mxGeometry x="-0.2152" relative="1" as="geometry">
            <mxPoint as="offset" />
          </mxGeometry>
        </mxCell>
        <mxCell id="_mboFmdrgdcaAABcw1Xs-110" value="" style="endArrow=none;html=1;rounded=0;exitX=0.143;exitY=0.818;exitDx=0;exitDy=0;exitPerimeter=0;entryX=0.5;entryY=0;entryDx=0;entryDy=0;entryPerimeter=0;strokeWidth=1;startArrow=blockThin;startFill=1;strokeColor=#2875E2;" edge="1" parent="1" source="_mboFmdrgdcaAABcw1Xs-6" target="_mboFmdrgdcaAABcw1Xs-8">
          <mxGeometry width="50" height="50" relative="1" as="geometry">
            <mxPoint x="650" y="210" as="sourcePoint" />
            <mxPoint x="650" y="252" as="targetPoint" />
            <Array as="points">
              <mxPoint x="390" y="270" />
            </Array>
          </mxGeometry>
        </mxCell>
        <mxCell id="_mboFmdrgdcaAABcw1Xs-118" value="mTLS" style="edgeLabel;html=1;align=center;verticalAlign=middle;resizable=0;points=[];labelBackgroundColor=#DAE8FC;" vertex="1" connectable="0" parent="_mboFmdrgdcaAABcw1Xs-110">
          <mxGeometry x="0.1055" y="1" relative="1" as="geometry">
            <mxPoint as="offset" />
          </mxGeometry>
        </mxCell>
        <mxCell id="_mboFmdrgdcaAABcw1Xs-111" value="" style="endArrow=none;html=1;rounded=0;exitX=0.851;exitY=0.807;exitDx=0;exitDy=0;exitPerimeter=0;entryX=0.5;entryY=0;entryDx=0;entryDy=0;entryPerimeter=0;strokeWidth=1;startArrow=blockThin;startFill=1;strokeColor=#2875E2;" edge="1" parent="1" source="_mboFmdrgdcaAABcw1Xs-6" target="_mboFmdrgdcaAABcw1Xs-44">
          <mxGeometry width="50" height="50" relative="1" as="geometry">
            <mxPoint x="660" y="220" as="sourcePoint" />
            <mxPoint x="660" y="262" as="targetPoint" />
            <Array as="points">
              <mxPoint x="460" y="270" />
            </Array>
          </mxGeometry>
        </mxCell>
        <mxCell id="_mboFmdrgdcaAABcw1Xs-120" value="mTLS" style="edgeLabel;html=1;align=center;verticalAlign=middle;resizable=0;points=[];labelBackgroundColor=#DAE8FC;" vertex="1" connectable="0" parent="_mboFmdrgdcaAABcw1Xs-111">
          <mxGeometry x="0.2794" y="-1" relative="1" as="geometry">
            <mxPoint x="9" y="-4" as="offset" />
          </mxGeometry>
        </mxCell>
        <mxCell id="_mboFmdrgdcaAABcw1Xs-112" value="" style="endArrow=none;html=1;rounded=0;exitX=0.9;exitY=0.383;exitDx=0;exitDy=0;exitPerimeter=0;entryX=0.5;entryY=0;entryDx=0;entryDy=0;entryPerimeter=0;strokeWidth=1;startArrow=blockThin;startFill=1;strokeColor=#2875E2;edgeStyle=orthogonalEdgeStyle;" edge="1" parent="1" source="_mboFmdrgdcaAABcw1Xs-6" target="_mboFmdrgdcaAABcw1Xs-47">
          <mxGeometry width="50" height="50" relative="1" as="geometry">
            <mxPoint x="670" y="230" as="sourcePoint" />
            <mxPoint x="670" y="272" as="targetPoint" />
          </mxGeometry>
        </mxCell>
        <mxCell id="_mboFmdrgdcaAABcw1Xs-121" value="mTLS" style="edgeLabel;html=1;align=center;verticalAlign=middle;resizable=0;points=[];labelBackgroundColor=#DAE8FC;spacingLeft=1;spacingRight=0;" vertex="1" connectable="0" parent="_mboFmdrgdcaAABcw1Xs-112">
          <mxGeometry x="-0.2553" relative="1" as="geometry">
            <mxPoint as="offset" />
          </mxGeometry>
        </mxCell>
        <mxCell id="_mboFmdrgdcaAABcw1Xs-113" value="" style="endArrow=none;html=1;rounded=0;entryX=0.5;entryY=0;entryDx=0;entryDy=0;entryPerimeter=0;strokeWidth=1;startArrow=none;startFill=0;strokeColor=#2875E2;edgeStyle=orthogonalEdgeStyle;" edge="1" parent="1" target="_mboFmdrgdcaAABcw1Xs-122">
          <mxGeometry width="50" height="50" relative="1" as="geometry">
            <mxPoint x="355" y="392" as="sourcePoint" />
            <mxPoint x="300" y="442" as="targetPoint" />
          </mxGeometry>
        </mxCell>
        <mxCell id="_mboFmdrgdcaAABcw1Xs-114" value="" style="endArrow=none;html=1;rounded=0;strokeWidth=1;startArrow=oval;startFill=1;strokeColor=#2875E2;entryX=0.5;entryY=0;entryDx=0;entryDy=0;entryPerimeter=0;" edge="1" parent="1" target="_mboFmdrgdcaAABcw1Xs-124">
          <mxGeometry width="50" height="50" relative="1" as="geometry">
            <mxPoint x="355" y="392" as="sourcePoint" />
            <mxPoint x="360" y="432" as="targetPoint" />
          </mxGeometry>
        </mxCell>
        <mxCell id="_mboFmdrgdcaAABcw1Xs-115" value="" style="endArrow=none;html=1;rounded=0;strokeWidth=1;startArrow=none;startFill=0;strokeColor=#2875E2;edgeStyle=orthogonalEdgeStyle;entryX=0.5;entryY=0;entryDx=0;entryDy=0;entryPerimeter=0;" edge="1" parent="1" target="_mboFmdrgdcaAABcw1Xs-123">
          <mxGeometry width="50" height="50" relative="1" as="geometry">
            <mxPoint x="355" y="392" as="sourcePoint" />
            <mxPoint x="440" y="432" as="targetPoint" />
          </mxGeometry>
        </mxCell>
        <mxCell id="_mboFmdrgdcaAABcw1Xs-116" value="" style="endArrow=none;html=1;rounded=0;strokeWidth=1;startArrow=blockThin;startFill=1;strokeColor=#2875E2;exitX=0.005;exitY=0.63;exitDx=0;exitDy=0;exitPerimeter=0;" edge="1" parent="1" source="_mboFmdrgdcaAABcw1Xs-6">
          <mxGeometry width="50" height="50" relative="1" as="geometry">
            <mxPoint x="355" y="380" as="sourcePoint" />
            <mxPoint x="355" y="410" as="targetPoint" />
            <Array as="points">
              <mxPoint x="355" y="260" />
            </Array>
          </mxGeometry>
        </mxCell>
        <mxCell id="_mboFmdrgdcaAABcw1Xs-130" value="TLS" style="edgeLabel;html=1;align=center;verticalAlign=middle;resizable=0;points=[];labelBackgroundColor=#DAE8FC;textShadow=0;spacing=2;" vertex="1" connectable="0" parent="_mboFmdrgdcaAABcw1Xs-116">
          <mxGeometry x="-0.6123" relative="1" as="geometry">
            <mxPoint as="offset" />
          </mxGeometry>
        </mxCell>
        <mxCell id="_mboFmdrgdcaAABcw1Xs-119" value="" style="aspect=fixed;sketch=0;html=1;dashed=0;whitespace=wrap;verticalLabelPosition=bottom;verticalAlign=top;fillColor=#2875E2;strokeColor=#ffffff;points=[[0.005,0.63,0],[0.1,0.2,0],[0.9,0.2,0],[0.5,0,0],[0.995,0.63,0],[0.72,0.99,0],[0.5,1,0],[0.28,0.99,0]];shape=mxgraph.kubernetes.icon2;kubernetesLabel=1;prIcon=kubelet" vertex="1" parent="1">
          <mxGeometry x="471" y="413" width="50" height="48" as="geometry" />
        </mxCell>
        <mxCell id="_mboFmdrgdcaAABcw1Xs-122" value="" style="aspect=fixed;sketch=0;html=1;dashed=0;whitespace=wrap;verticalLabelPosition=bottom;verticalAlign=top;fillColor=#2875E2;strokeColor=#ffffff;points=[[0.005,0.63,0],[0.1,0.2,0],[0.9,0.2,0],[0.5,0,0],[0.995,0.63,0],[0.72,0.99,0],[0.5,1,0],[0.28,0.99,0]];shape=mxgraph.kubernetes.icon2;kubernetesLabel=1;prIcon=pod" vertex="1" parent="1">
          <mxGeometry x="280" y="413" width="50" height="48" as="geometry" />
        </mxCell>
        <mxCell id="_mboFmdrgdcaAABcw1Xs-123" value="" style="aspect=fixed;sketch=0;html=1;dashed=0;whitespace=wrap;verticalLabelPosition=bottom;verticalAlign=top;fillColor=#2875E2;strokeColor=#ffffff;points=[[0.005,0.63,0],[0.1,0.2,0],[0.9,0.2,0],[0.5,0,0],[0.995,0.63,0],[0.72,0.99,0],[0.5,1,0],[0.28,0.99,0]];shape=mxgraph.kubernetes.icon2;kubernetesLabel=1;prIcon=pod" vertex="1" parent="1">
          <mxGeometry x="380" y="413" width="50" height="48" as="geometry" />
        </mxCell>
        <mxCell id="_mboFmdrgdcaAABcw1Xs-124" value="" style="aspect=fixed;sketch=0;html=1;dashed=0;whitespace=wrap;verticalLabelPosition=bottom;verticalAlign=top;fillColor=#2875E2;strokeColor=#ffffff;points=[[0.005,0.63,0],[0.1,0.2,0],[0.9,0.2,0],[0.5,0,0],[0.995,0.63,0],[0.72,0.99,0],[0.5,1,0],[0.28,0.99,0]];shape=mxgraph.kubernetes.icon2;kubernetesLabel=1;prIcon=pod" vertex="1" parent="1">
          <mxGeometry x="330" y="413" width="50" height="48" as="geometry" />
        </mxCell>
        <mxCell id="_mboFmdrgdcaAABcw1Xs-125" value="" style="endArrow=none;html=1;rounded=0;strokeWidth=1;startArrow=blockThin;startFill=1;strokeColor=#2875E2;exitX=0.995;exitY=0.63;exitDx=0;exitDy=0;exitPerimeter=0;entryX=0.5;entryY=0;entryDx=0;entryDy=0;entryPerimeter=0;" edge="1" parent="1" source="_mboFmdrgdcaAABcw1Xs-6" target="_mboFmdrgdcaAABcw1Xs-119">
          <mxGeometry width="50" height="50" relative="1" as="geometry">
            <mxPoint x="451.75" y="250.24" as="sourcePoint" />
            <mxPoint x="510" y="410" as="targetPoint" />
            <Array as="points">
              <mxPoint x="496" y="260" />
            </Array>
          </mxGeometry>
        </mxCell>
        <mxCell id="_mboFmdrgdcaAABcw1Xs-131" value="mTLS" style="edgeLabel;html=1;align=center;verticalAlign=middle;resizable=0;points=[];labelBackgroundColor=#DAE8FC;" vertex="1" connectable="0" parent="_mboFmdrgdcaAABcw1Xs-125">
          <mxGeometry x="-0.5706" relative="1" as="geometry">
            <mxPoint as="offset" />
          </mxGeometry>
        </mxCell>
        <mxCell id="_mboFmdrgdcaAABcw1Xs-126" value="" style="endArrow=none;html=1;rounded=0;entryX=0.5;entryY=1;entryDx=0;entryDy=0;entryPerimeter=0;strokeWidth=1;startArrow=blockThin;startFill=1;strokeColor=#2875E2;exitX=0.1;exitY=0.2;exitDx=0;exitDy=0;exitPerimeter=0;endFill=0;" edge="1" parent="1" source="_mboFmdrgdcaAABcw1Xs-119" target="_mboFmdrgdcaAABcw1Xs-6">
          <mxGeometry width="50" height="50" relative="1" as="geometry">
            <mxPoint x="440" y="400" as="sourcePoint" />
            <mxPoint x="730" y="332" as="targetPoint" />
            <Array as="points">
              <mxPoint x="425" y="380" />
            </Array>
          </mxGeometry>
        </mxCell>
        <mxCell id="_mboFmdrgdcaAABcw1Xs-134" value="mTLS" style="edgeLabel;html=1;align=center;verticalAlign=middle;resizable=0;points=[];" vertex="1" connectable="0" parent="_mboFmdrgdcaAABcw1Xs-126">
          <mxGeometry x="-0.7586" y="-1" relative="1" as="geometry">
            <mxPoint x="-21" y="-14" as="offset" />
          </mxGeometry>
        </mxCell>
        <mxCell id="_mboFmdrgdcaAABcw1Xs-132" value="" style="aspect=fixed;sketch=0;html=1;dashed=0;whitespace=wrap;verticalLabelPosition=bottom;verticalAlign=top;fillColor=#2875E2;strokeColor=#ffffff;points=[[0.005,0.63,0],[0.1,0.2,0],[0.9,0.2,0],[0.5,0,0],[0.995,0.63,0],[0.72,0.99,0],[0.5,1,0],[0.28,0.99,0]];shape=mxgraph.kubernetes.icon2;kubernetesLabel=1;prIcon=k_proxy" vertex="1" parent="1">
          <mxGeometry x="521" y="413" width="50" height="48" as="geometry" />
        </mxCell>
        <mxCell id="_mboFmdrgdcaAABcw1Xs-133" value="" style="endArrow=none;html=1;rounded=0;strokeWidth=1;startArrow=oval;startFill=1;strokeColor=#2875E2;edgeStyle=orthogonalEdgeStyle;entryX=0.5;entryY=0;entryDx=0;entryDy=0;entryPerimeter=0;" edge="1" parent="1" target="_mboFmdrgdcaAABcw1Xs-132">
          <mxGeometry width="50" height="50" relative="1" as="geometry">
            <mxPoint x="496" y="393" as="sourcePoint" />
            <mxPoint x="542" y="414" as="targetPoint" />
          </mxGeometry>
        </mxCell>
        <mxCell id="_mboFmdrgdcaAABcw1Xs-135" value="" style="endArrow=none;html=1;rounded=0;entryX=0.5;entryY=1;entryDx=0;entryDy=0;entryPerimeter=0;strokeWidth=1;startArrow=blockThin;startFill=1;strokeColor=#2875E2;exitX=0.288;exitY=0.146;exitDx=0;exitDy=0;exitPerimeter=0;" edge="1" parent="1" source="_mboFmdrgdcaAABcw1Xs-119" target="_mboFmdrgdcaAABcw1Xs-44">
          <mxGeometry width="50" height="50" relative="1" as="geometry">
            <mxPoint x="486" y="433" as="sourcePoint" />
            <mxPoint x="435" y="278" as="targetPoint" />
            <Array as="points">
              <mxPoint x="460" y="390" />
            </Array>
          </mxGeometry>
        </mxCell>
        <mxCell id="_mboFmdrgdcaAABcw1Xs-136" value="mTLS" style="edgeLabel;html=1;align=center;verticalAlign=middle;resizable=0;points=[];" vertex="1" connectable="0" parent="_mboFmdrgdcaAABcw1Xs-135">
          <mxGeometry x="-0.7586" y="-1" relative="1" as="geometry">
            <mxPoint x="-20" y="-32" as="offset" />
          </mxGeometry>
        </mxCell>
        <mxCell id="_mboFmdrgdcaAABcw1Xs-145" value="ctr" style="whiteSpace=wrap;html=1;fontColor=#FFFFFF;strokeColor=none;fillColor=#2875E2;imageHeight=24;spacing=0;verticalAlign=middle;fontSize=10;" vertex="1" parent="1">
          <mxGeometry x="296" y="451" width="18" height="8" as="geometry" />
        </mxCell>
        <mxCell id="_mboFmdrgdcaAABcw1Xs-143" value="admis" style="whiteSpace=wrap;html=1;fontColor=#FFFFFF;strokeColor=none;fillColor=#2875E2;imageHeight=24;spacing=0;verticalAlign=middle;fontSize=10;" vertex="1" parent="1">
          <mxGeometry x="292" y="443" width="26" height="8" as="geometry" />
        </mxCell>
        <mxCell id="_mboFmdrgdcaAABcw1Xs-146" value="" style="endArrow=oval;html=1;rounded=0;strokeWidth=1;startArrow=classicThin;startFill=1;strokeColor=#2875E2;exitX=0.005;exitY=0.63;exitDx=0;exitDy=0;exitPerimeter=0;endFill=1;" edge="1" parent="1" source="_mboFmdrgdcaAABcw1Xs-122">
          <mxGeometry width="50" height="50" relative="1" as="geometry">
            <mxPoint x="280" y="380" as="sourcePoint" />
            <mxPoint x="425" y="380" as="targetPoint" />
            <Array as="points">
              <mxPoint x="270" y="443" />
              <mxPoint x="270" y="380" />
            </Array>
          </mxGeometry>
        </mxCell>
        <mxCell id="_mboFmdrgdcaAABcw1Xs-147" value="mTLS" style="edgeLabel;html=1;align=center;verticalAlign=middle;resizable=0;points=[];" vertex="1" connectable="0" parent="_mboFmdrgdcaAABcw1Xs-146">
          <mxGeometry x="-0.635" y="1" relative="1" as="geometry">
            <mxPoint as="offset" />
          </mxGeometry>
        </mxCell>
        <mxCell id="_mboFmdrgdcaAABcw1Xs-148" value="" style="group" vertex="1" connectable="0" parent="1">
          <mxGeometry x="550" y="130" width="50" height="48" as="geometry" />
        </mxCell>
        <mxCell id="_mboFmdrgdcaAABcw1Xs-140" value="" style="aspect=fixed;sketch=0;html=1;dashed=0;whitespace=wrap;verticalLabelPosition=bottom;verticalAlign=top;fillColor=#2875E2;strokeColor=#ffffff;points=[[0.005,0.63,0],[0.1,0.2,0],[0.9,0.2,0],[0.5,0,0],[0.995,0.63,0],[0.72,0.99,0],[0.5,1,0],[0.28,0.99,0]];shape=mxgraph.kubernetes.icon2;kubernetesLabel=1;prIcon=sched;rounded=1;" vertex="1" parent="_mboFmdrgdcaAABcw1Xs-148">
          <mxGeometry width="50" height="48" as="geometry" />
        </mxCell>
        <mxCell id="_mboFmdrgdcaAABcw1Xs-141" value="cloud" style="whiteSpace=wrap;html=1;fontColor=#FFFFFF;strokeColor=none;fillColor=#2875E2;imageHeight=24;spacing=0;verticalAlign=middle;fontSize=10;" vertex="1" parent="_mboFmdrgdcaAABcw1Xs-148">
          <mxGeometry x="12.5" y="32" width="25" height="10" as="geometry" />
        </mxCell>
        <mxCell id="_mboFmdrgdcaAABcw1Xs-149" value="" style="endArrow=none;html=1;rounded=0;exitX=0.5;exitY=1;exitDx=0;exitDy=0;exitPerimeter=0;strokeWidth=1;startArrow=blockThin;startFill=1;strokeColor=#2875E2;entryX=0.9;entryY=0.2;entryDx=0;entryDy=0;entryPerimeter=0;" edge="1" parent="1" source="_mboFmdrgdcaAABcw1Xs-140" target="_mboFmdrgdcaAABcw1Xs-6">
          <mxGeometry width="50" height="50" relative="1" as="geometry">
            <mxPoint x="435" y="188" as="sourcePoint" />
            <mxPoint x="470" y="180" as="targetPoint" />
            <Array as="points">
              <mxPoint x="575" y="200" />
              <mxPoint x="470" y="200" />
            </Array>
          </mxGeometry>
        </mxCell>
        <mxCell id="_mboFmdrgdcaAABcw1Xs-150" value="" style="endArrow=classicThin;html=1;rounded=0;strokeWidth=1;startArrow=oval;startFill=1;strokeColor=#2875E2;entryX=0.1;entryY=0.2;entryDx=0;entryDy=0;entryPerimeter=0;endFill=1;" edge="1" parent="1" target="_mboFmdrgdcaAABcw1Xs-44">
          <mxGeometry width="50" height="50" relative="1" as="geometry">
            <mxPoint x="425" y="295" as="sourcePoint" />
            <mxPoint x="440" y="315.6" as="targetPoint" />
          </mxGeometry>
        </mxCell>
        <mxCell id="_mboFmdrgdcaAABcw1Xs-151" value="mTLS" style="edgeLabel;html=1;align=center;verticalAlign=middle;resizable=0;points=[];labelBackgroundColor=none;" vertex="1" connectable="0" parent="_mboFmdrgdcaAABcw1Xs-150">
          <mxGeometry x="-0.5191" relative="1" as="geometry">
            <mxPoint x="14" y="-4" as="offset" />
          </mxGeometry>
        </mxCell>
      </root>
    </mxGraphModel>
  </diagram>
</mxfile>
